<?xml version="1.0" standalone="no"?><svg xmlns="http://www.w3.org/2000/svg" viewBox="0 0 1440 320"><path fill="#0099ff" fill-opacity="1" d="M0,320L34.3,288C68.6,256,137,192,206,186.7C274.3,181,343,235,411,224C480,213,549,139,617,122.7C685.7,107,754,149,823,186.7C891.4,224,960,256,1029,245.3C1097.1,235,1166,181,1234,138.7C1302.9,96,1371,64,1406,48L1440,32L1440,0L1405.7,0C1371.4,0,1303,0,1234,0C1165.7,0,1097,0,1029,0C960,0,891,0,823,0C754.3,0,686,0,617,0C548.6,0,480,0,411,0C342.9,0,274,0,206,0C137.1,0,69,0,34,0L0,0Z"></path></svg>